<?xml version="1.0" encoding="UTF-8"?>
<svg width="512" height="512" viewBox="0 0 512 512" xmlns="http://www.w3.org/2000/svg">
  <defs>
    <linearGradient id="quantumGradient" x1="0%" y1="0%" x2="100%" y2="100%">
      <stop offset="0%" style="stop-color:#6366f1;stop-opacity:1" />
      <stop offset="50%" style="stop-color:#8b5cf6;stop-opacity:1" />
      <stop offset="100%" style="stop-color:#ec4899;stop-opacity:1" />
    </linearGradient>
    <linearGradient id="innerGradient" x1="0%" y1="0%" x2="100%" y2="100%">
      <stop offset="0%" style="stop-color:#ffffff;stop-opacity:0.2" />
      <stop offset="100%" style="stop-color:#ffffff;stop-opacity:0.05" />
    </linearGradient>
    <filter id="glow" x="-50%" y="-50%" width="200%" height="200%">
      <feGaussianBlur stdDeviation="3" result="coloredBlur"/>
      <feMerge> 
        <feMergeNode in="coloredBlur"/>
        <feMergeNode in="SourceGraphic"/>
      </feMerge>
    </filter>
  </defs>
  
  <!-- Outer ring with quantum glow -->
  <circle cx="256" cy="256" r="240" fill="url(#quantumGradient)" filter="url(#glow)" opacity="0.8"/>
  
  <!-- Main circle background -->
  <circle cx="256" cy="256" r="200" fill="url(#quantumGradient)"/>
  
  <!-- Inner highlight -->
  <circle cx="256" cy="256" r="190" fill="url(#innerGradient)"/>
  
  <!-- ZK symbol - stylized Z -->
  <path d="M180 180 L330 180 L200 280 L330 280 L330 300 L180 300 L310 200 L180 200 Z" 
        fill="white" opacity="0.9" stroke="white" stroke-width="2"/>
  
  <!-- Quantum dots pattern -->
  <circle cx="200" cy="200" r="4" fill="white" opacity="0.6"/>
  <circle cx="312" cy="200" r="4" fill="white" opacity="0.6"/>
  <circle cx="200" cy="312" r="4" fill="white" opacity="0.6"/>
  <circle cx="312" cy="312" r="4" fill="white" opacity="0.6"/>
  <circle cx="256" cy="150" r="3" fill="white" opacity="0.5"/>
  <circle cx="256" cy="362" r="3" fill="white" opacity="0.5"/>
  <circle cx="150" cy="256" r="3" fill="white" opacity="0.5"/>
  <circle cx="362" cy="256" r="3" fill="white" opacity="0.5"/>
  
  <!-- Network connections -->
  <line x1="200" y1="200" x2="312" y2="200" stroke="white" stroke-width="1" opacity="0.3"/>
  <line x1="200" y1="312" x2="312" y2="312" stroke="white" stroke-width="1" opacity="0.3"/>
  <line x1="200" y1="200" x2="200" y2="312" stroke="white" stroke-width="1" opacity="0.3"/>
  <line x1="312" y1="200" x2="312" y2="312" stroke="white" stroke-width="1" opacity="0.3"/>
  <line x1="200" y1="200" x2="312" y2="312" stroke="white" stroke-width="1" opacity="0.2"/>
  <line x1="312" y1="200" x2="200" y2="312" stroke="white" stroke-width="1" opacity="0.2"/>
  
  <!-- Central quantum core -->
  <circle cx="256" cy="256" r="15" fill="white" opacity="0.8"/>
  <circle cx="256" cy="256" r="8" fill="url(#quantumGradient)"/>
</svg>
